<?xml version="1.0" encoding="utf-8"?>
<!-- Generator: Adobe Illustrator 27.5.0, SVG Export Plug-In . SVG Version: 6.00 Build 0)  -->
<svg version="1.1" id="Layer_1" xmlns="http://www.w3.org/2000/svg" xmlns:xlink="http://www.w3.org/1999/xlink" x="0px" y="0px"
	 viewBox="0 0 1080 1080" style="enable-background:new 0 0 1080 1080;" xml:space="preserve">
<style type="text/css">
	.st0{fill:#161818;}
	.st1{fill:#CC7256;}
	.st2{fill:#A04F39;}
	.st3{fill:#E1836C;}
	.st4{fill:#2C2C2C;}
	.st5{fill:#474747;}
	.st6{fill:#FFA651;}
</style>
<g>
	<path class="st0" d="M280.45,606.18c2.14,8.5,2.29,18.16-2.75,25.33c-3.85,5.47-10.58,9.46-11.48,16.08
		c-1.06,7.88,6.93,15.56,4.14,23c-1.94,5.17-8.46,7.72-9.92,13.05c-1.57,5.75,3.42,10.94,7.28,15.47
		c4.79,5.63,8.51,12.68,8.14,20.07c-0.45,9.14-6.99,16.88-14.26,22.43c-13.11,10-29.74,15.27-46.21,14.66
		c15.64-5.07,25.52-23.56,21.02-39.38c-1.44-5.06-4.09-9.69-5.7-14.69c-1.61-5-2.04-10.8,0.79-15.23c3.78-5.9,12.6-8.31,13.97-15.19
		c1.35-6.74-5.59-12.39-6.47-19.21c-1.52-11.86,14.78-18.77,16.97-30.53c1.66-8.9-5.37-17.57-4.28-26.55
		c0.73-6.02,10.29-24.85,18.58-18.96c2.93,2.08,3.47,8.33,4.35,11.43C276.39,594.1,278.9,599.99,280.45,606.18z"/>
	<g>
		<g>
			<g>
				<path class="st1" d="M494.25,946.68l27.86-8.24c46-13.61,76.89-56.63,75.11-104.57c-0.02-0.52-0.04-1.05-0.06-1.58
					c-2.07-59.16-4.24-114.61-4.24-114.61l-166.94,65.99c18.64,41.74,29.85,89.22,29.85,134.64c0,0.14,0,0.28,0,0.42
					C455.95,938.42,475.37,952.27,494.25,946.68z"/>
				<path class="st2" d="M425.97,783.68c18.64,41.74,27.03,89.31,29.85,134.64c5.27,2.2,10.42,4.23,15.26,5.93
					c19.38,6.74,81.65-48.53,126.07-91.95c-2.07-59.16-4.24-114.61-4.24-114.61L425.97,783.68z"/>
			</g>
			<g>
				<g>
					<path class="st1" d="M250.85,585.35c3.37,15.44,7.7,31.66,13.06,48.61c0,0-7.48,83.6,1.3,102.33
						c8.83,18.77,65.05,135.54,124.12,128.32c49.31-6.01,169.88-78.24,211.79-121.27c8.39-8.56,13.63-15.96,14.57-21.45
						c5.75-33.17,25.52-179.48,27.38-191.72c5.02-33.17,18.95-284.4-284.79-214.51c-54.71,12.63-97.87,55.01-110.24,109.76
						C239.09,464.95,236.15,518.01,250.85,585.35z"/>
					<path class="st3" d="M263.92,633.96c0,0-7.48,83.6,1.3,102.33c8.83,18.77,65.05,135.54,124.12,128.32
						c49.31-6.01,169.88-78.24,211.79-121.27c-51.33,35.64-188.22,126.59-228.35,112.62c-49.74-17.3-105.96-127.37-104.88-138.27
						c1.08-10.94,4.33-82.26,4.33-82.26s-10.03-22.53-21.37-50.08C254.23,600.78,258.55,617,263.92,633.96z"/>
				</g>
				<g>
					<path class="st3" d="M602.12,717.68c38.13-3,65.89-25.62,80.75-44.57c3.34-4.27,6.02-8.35,8.04-11.98
						c10.89-19.75,14.02-88.24-14.02-104.16c-19.65-11.14-33.95,5.02-40.75,15.72c0,0.02,0,0.03,0,0.03c-2.9,4.55-4.44,8.1-4.44,8.1
						L602.12,717.68z"/>
					<path class="st1" d="M602.12,717.68c38.13-3,65.89-25.62,80.75-44.57c1.28-1.93,2.4-3.77,3.36-5.52
						c10.89-19.75,14.02-88.24-14.02-104.14c-15.91-9.03-28.32-0.15-36.08,9.25c0,0.02,0,0.03,0,0.03c-2.9,4.55-4.44,8.1-4.44,8.1
						L602.12,717.68z"/>
					<path class="st3" d="M685.73,611.37c1.4,5.48,0.52,11.18-1.28,16.59c-7.66,22.98-30.62,40.53-52.6,56.81
						c6.63-11.14,9.07-23.73,7.71-35.99c-0.47-4.27-1.39-8.51-1.44-12.79C637.96,618.76,677.42,578.99,685.73,611.37z"/>
					<g>
						<path class="st2" d="M620.81,691.31c0,0,0.43-0.25,1.25-0.71c0.79-0.48,2.08-1.11,3.54-2.11c2.94-1.97,7.01-5.12,10.85-9.79
							c3.81-4.66,7.27-10.88,8.92-18.25c1.48-7.34,1.17-15.9-2.77-24.15c-0.42-1.04-1.01-2.03-1.6-3.01l-0.44-0.73
							c-0.11-0.19-0.04-0.07-0.06-0.09l0.01,0.02l-0.02-0.01h-0.01c0,0-0.03,0.04,0.06-0.12l0.36-0.66l0.74-1.31
							c0.51-0.86,1-1.72,1.53-2.56c2.08-3.37,4.32-6.53,6.63-9.47s4.7-5.65,7.06-8.12c2.38-2.45,4.67-4.76,6.95-6.46
							c2.27-1.72,4.77-2.84,7.11-3.14c2.35-0.27,4.57,0.27,6.06,1c1.51,0.76,2.35,1.72,2.69,2.44c0.37,0.72,0.35,1.16,0.39,1.15
							c0,0,0.11-0.42-0.07-1.22c-0.15-0.8-0.76-2.01-2.27-3.13c-1.5-1.08-3.84-2.11-6.94-2.19c-3.1-0.02-6.44,1.01-9.43,2.7
							c-3.01,1.69-5.71,3.81-8.55,6.13c-2.82,2.35-5.69,4.98-8.45,7.93c-2.75,2.94-5.4,6.18-7.81,9.68
							c-0.61,0.87-1.19,1.77-1.76,2.68l-0.84,1.38l-1.12,1.94l-0.77,1.37c0.2,0.45,0.51,0.9,0.76,1.36l1.12,1.95
							c0.5,0.86,1.01,1.71,1.37,2.62c3.43,7.15,4.19,14.64,3.55,21.35c-0.8,6.72-3.06,12.7-5.82,17.43
							c-2.76,4.74-5.92,8.27-8.29,10.59c-1.17,1.18-2.24,1.98-2.9,2.59C621.17,691,620.81,691.31,620.81,691.31z"/>
					</g>
				</g>
			</g>
		</g>
	</g>
	<g>
		<path class="st0" d="M223.32,525.21c0,0,38.77-51.9,60.39-31.36c21.62,20.55,11.89,22.71,11.89,22.71L223.32,525.21z"/>
		<g>
			<g>
				<path class="st0" d="M304.48,602.19c0,0-0.96-0.39-2.62-0.92c-1.65-0.53-3.99-1.18-6.75-1.59c-5.61-0.94-12.41-0.75-20.03,0.07
					c-7.62,0.82-15.51,1.59-20.75,2.66c-5.35,1.03-8.77,3.49-8.77,3.49s0.03-1.02,0.61-2.83c0.58-1.79,1.88-4.37,4.27-6.93
					c4.89-5.08,12.81-9.88,23.19-11.06c5.16-0.52,10.3,0.18,14.65,1.78c4.35,1.57,7.84,3.94,10.3,6.32
					c2.49,2.36,3.95,4.71,4.79,6.36C304.23,601.19,304.48,602.19,304.48,602.19z"/>
			</g>
			<g>
				<path class="st0" d="M513.55,601.61c0,0-1.58-0.58-4.41-1.61c-2.79-1.02-6.81-2.36-11.65-3.71c-9.75-2.68-22.77-4.93-36.91-5.49
					c-14.14-0.7-27.2,0.4-37.06,2.36c-9.7,1.81-15.68,5.23-15.68,5.23s0.6-1.59,2.39-4.17c1.76-2.57,4.86-6.07,9.43-9.43
					c8.87-6.67,24.18-13.28,41.76-12.4c8.71,0.39,16.84,2.5,23.72,5.44c6.89,2.95,12.48,6.81,16.74,10.36
					c4.24,3.65,7.16,7.05,8.99,9.51C512.67,600.19,513.55,601.61,513.55,601.61z"/>
			</g>
		</g>
		<path class="st0" d="M530.19,533.17c0,0-71.54-82.39-100.83-53.13c-17.1,17.08-5.22,28.71-5.22,28.71L530.19,533.17z"/>
		<g>
			<path class="st3" d="M375.39,687.66c6.2-2.26,12.4-5.65,18.97-4.98c-6.54,14.99-19.2,27.2-34.42,33.18
				c-1.17,0.46-2.4,0.9-3.66,0.86c-1.55-0.05-2.97-0.81-4.29-1.59c-8.43-4.93-15.86-11.55-21.74-19.35
				c-1.19-1.58-2.35-3.26-2.8-5.19c-1.5-6.38,2.88-4.98,6.68-3.49c4.4,1.73,9.02,2.89,13.7,3.51
				C357.07,691.81,366.62,690.86,375.39,687.66z"/>
			<path class="st2" d="M358.58,712.2c-3.89-3.47-8.25-6.42-12.24-9.81c-4.92-4.18-9.51-8.74-13.53-13.81
				c20.73-14.28,20.51-35.92,19.51-60.45c-0.45-11.07-3.54-21.99-8.92-31.67c-2.83-5.08-6.27-9.82-10.25-14.07
				c-2.02-2.16-4.17-4.2-6.44-6.1c-2.22-1.86-4.5-2.89-7.17-3.98c1.27,1.46,2.15,3.16,3.3,4.65c3.01,3.92,6.17,7.57,8.77,11.82
				c2.6,4.24,4.82,8.71,6.67,13.32c3.68,9.24,5.85,19.11,6.2,29.05c0.34,9.76-1.09,19.61-4.66,28.71
				c-4.08,10.39-11.29,20.7-20.75,26.76c-0.08,0.05,14.16,16.5,15.56,17.84c3.6,3.46,7.52,6.6,11.74,9.27
				c4.14,2.62,8.9,5.73,13.97,5.53c1.58-0.06,3.21-0.41,4.5-1.34c-0.87-0.57-1.69-1.23-2.43-1.95c-0.32-0.32-0.64-0.65-0.95-0.98
				C360.54,714.02,359.58,713.09,358.58,712.2z"/>
			<g>
				<path class="st2" d="M419.15,782.04c-15.49,7.79-34.43,8.35-50.35,1.49c5.53,8.05,13.27,12.79,23.02,12.43
					C401.58,795.59,412.56,789.25,419.15,782.04z"/>
				<path class="st2" d="M477.58,738.01c-39.5,28.81-93.68,36.25-139.48,19.14c25.1,5.2,50.76,3.43,76.15-0.16
					C433.81,754.22,461.03,748.79,477.58,738.01z"/>
			</g>
		</g>
	</g>
	<g>
		<g>
			<path class="st0" d="M588.59,291.37c-16.48,13.97-9.43,43.07,8.13,55.7c17.55,12.59,40.74,13.28,62.36,13.06
				c-4.84,0.04,10.25,29.88,11.89,31.79c8.43,9.69,20.2,15.35,32.74,17.13c-0.91,20.93,25.78,36.72,53.28,42.21
				c21.84,4.33,44.2,2.16,53.72-9.17c8.86-10.51,8.3-28.81-3.21-36.33c17.09,3.03,33.05-18.08,25.48-33.69
				c36.81-11.89,62.71-51.17,59.21-89.66c-3.55-38.53-36.2-72.44-74.56-77.37c3.16-11.33,2.68-24.48-4.58-33.73
				c-7.23-9.3-22.45-12.45-31.1-4.46c-3.76-15.83-17.21-28.93-33.13-32.22c-15.92-3.33-33.48,3.29-43.25,16.3
				c-12.46-27.16-51.55-35.77-76.51-19.38c-24.95,16.4-33.56,51.77-22.79,79.62c-19.12-0.31-37.45,14.19-41.56,32.87
				c-0.22,1-0.39,1.99-0.52,2.99C561.74,264.89,572.07,284.01,588.59,291.37z"/>
			<path class="st4" d="M564.2,247.04c7.48,2.29,15.44,3.59,23.09,4.71c2.94,0.44,5.93,0.87,8.78,0.17
				c9.47-2.33,16.22-16.09,25.04-12.11c3.63,1.64,5.63,5.96,9.43,7.13c6.32,1.9,10.94-5.58,14.92-10.81
				c7.53-9.95,21.33-14.66,33.39-11.42c5.53,1.51,11.2,4.54,16.69,2.81c7.57-2.42,11.25-13.06,19.2-13.32
				c9.51-0.3,12.11,13.54,20.02,18.81c10.42,6.92,28.24-2.03,35.21,8.31c4.36,6.44,0.56,16.08,5.1,22.4
				c7.4,10.38,28.28,1.38,34.29,12.59c2.73,5.1,0.35,11.72,2.68,16.99c1.99,4.37,6.75,6.83,9.47,10.77
				c6.75,9.69-0.91,22.58-8.35,31.75c-7.44,9.21-14.88,18.42-22.31,27.64c-16.4,20.29-3.42,40.53-13.28,62.58
				c-4.46,10.03-12.93,17.43-20.59,25.21c21.84,4.33,44.2,2.16,53.72-9.17c8.86-10.51,8.3-28.81-3.21-36.33
				c17.09,3.03,33.05-18.08,25.48-33.69c33.99-10.99,58.69-45.37,59.47-80.92c0.08-2.9,0-5.84-0.26-8.74
				c-3.55-38.53-36.2-72.44-74.56-77.37c3.16-11.33,2.68-24.48-4.58-33.73c-7.23-9.3-22.45-12.45-31.1-4.46
				c-3.76-15.83-17.21-28.93-33.13-32.22c-15.92-3.33-33.48,3.29-43.25,16.3c-12.46-27.16-51.55-35.77-76.51-19.38
				c-15.01,9.82-24.05,26.52-26.6,44.33c-1.69,11.85-0.48,24.18,3.8,35.29c-19.12-0.31-37.45,14.19-41.56,32.87
				C564.5,245.04,564.33,246.04,564.2,247.04z"/>
			<path class="st5" d="M602.47,175.89c1.64-0.3,3.33-0.91,4.84-1.56c26.77-10.68,56.7-13.32,84.94-7.52
				c8.91,1.86,19.38,6.62,19.68,15.65c3.72-13.79,19.25-23.22,33.22-20.15c13.97,3.07,24.09,18.12,21.71,32.22
				c9.69-6.01,23.53-4.11,31.23,4.28c7.74,8.39,8.44,22.36,1.6,31.53c47.14,3.64,67.6,31.53,92.77,60.81c0.08-2.9,0-5.84-0.26-8.74
				c-3.55-38.53-36.2-72.44-74.56-77.37c3.16-11.33,2.68-24.48-4.58-33.73c-7.23-9.3-22.45-12.45-31.1-4.46
				c-3.76-15.83-17.21-28.93-33.13-32.22c-15.92-3.33-33.48,3.29-43.25,16.3c-12.46-27.16-51.55-35.77-76.51-19.38
				C614.07,141.38,605.03,158.07,602.47,175.89z"/>
			<circle class="st6" cx="642.61" cy="350.4" r="75.08"/>
		</g>
		<g>
			<path class="st0" d="M201.47,436.55c1.39,12.59,10.56,22.66,17.73,33.09c8.44,12.32,9.6,20.29,19.3,32.88
				c4.81-43.03,17.29-89.76,36.32-123.36c0.3-0.52,0.61-1.04,0.91-1.56c1.34,2.77,2.81,5.41,4.54,7.83
				c13.23,18.42,45.84,3.29,65.09,15.35c6.96,4.37,13.49,9.6,21.02,12.93c26.34,11.63,58.34-2.38,85.2,7.87
				c18.34,6.97,30.71,23.75,45.89,36.11c32.7,26.64,79.06,32.31,121.1,35.55c4.23,10.16,6.83,30.23,8.43,50.26
				c-6.11,3.33-11.42,14.66-11.98,19.12c-1.08,8.99,5.92,17.65,4.28,26.55c-2.17,11.76-18.47,18.69-16.96,30.53
				c0.86,6.79,7.83,12.46,6.49,19.2c-1.38,6.88-10.21,9.3-14.01,15.18c-2.81,4.41-2.38,10.25-0.78,15.22
				c1.6,5.02,4.28,9.64,5.71,14.7c4.5,15.83-5.41,34.3-21.02,39.36c16.48,0.65,33.09-4.63,46.19-14.66
				c7.26-5.53,13.84-13.28,14.27-22.4c0.34-7.39-3.38-14.44-8.13-20.07c-3.89-4.54-8.87-9.73-7.31-15.48
				c1.47-5.32,8.01-7.87,9.95-13.06c2.76-7.44-5.19-15.14-4.16-23.01c0.91-6.62,7.66-10.59,11.5-16.09
				c5.02-7.18,4.89-16.82,2.73-25.3c-1.04-4.11-2.46-8.09-3.85-12.06c7.82-8.78,19.72-16.26,34.73-7.74
				c3.46,1.99,6.49,4.8,9.04,8.22c7.92-14.23,19.2-37.97,26.08-67.47c5.62-24.09,8.3-52.07,3.77-81.83
				c-9.91-65.35-60.33-147.3-162.62-178.74c-68.03-20.93-122.35-22.79-164.43-13.41c-13.66-2.94-27.03-6.92-40.35-11.46
				c-3.98-1.39-8.13-2.77-12.28-2.03c-7.39,1.3-11.8,8.7-15.95,14.92c-11.16,16.74-27.34,30.1-45.84,37.93
				c-3.46,1.43-7.23,2.85-9.52,5.84c-2.25,2.98-2.64,7.05-2.33,10.77c0.91,10.16,6.27,19.29,9.82,28.85
				c-0.44,0.26-0.87,0.57-1.3,0.78c-8.78,4.06-19.51-3.54-28.54-0.13c-8.48,3.16-10.86,13.8-16.56,20.76
				c-5.28,6.53-13.71,9.99-20.93,14.45c-5.06,3.03-9.52,6.62-11.94,11.94c-7.61,16.69,11.03,33.69,13.02,51.94
				C204.93,415.4,200.31,425.95,201.47,436.55z"/>
			<path class="st4" d="M202.68,340.93c2.25,1,4.54,1.9,6.92,2.68c21.84,7.05,45.58,2.51,68.12-2.12
				c22.53-4.67,45.11-9.29,67.64-13.92c10.29-2.12,22.53-3.72,30.05,3.59c3.5,3.37,5.41,8.3,9.39,11.11
				c12.63,9.09,27.77-9.99,43.34-10.59c18.68-0.69,26.95,23.57,42.69,33.65c26.04,16.65,63.01-10.12,90.52,4.02
				c19.81,10.21,27.37,38.62,49.04,43.89c14.79,3.59,31.31-5.4,45.15,0.91c25.09,11.37,16.18,52.29,36.16,69.98
				c4.97,4.41,11.2,7.79,18.08,10.12c5.62-24.09,8.3-52.07,3.77-81.83c-1.9-12.63-5.36-25.86-10.38-39.23
				c-20.93-55.87-69.72-114.13-152.23-139.52c-68.03-20.93-122.35-22.79-164.43-13.41c-13.66-2.94-27.03-6.92-40.35-11.46
				c-3.98-1.39-8.13-2.77-12.28-2.03c-7.39,1.3-11.8,8.7-15.95,14.92c-9.3,13.97-22.15,25.61-36.89,33.61
				c-2.9,1.6-5.88,3.03-8.95,4.33c-3.46,1.43-7.23,2.85-9.52,5.84c-2.25,2.98-2.64,7.05-2.33,10.77
				c0.91,10.16,6.27,19.29,9.82,28.85c-0.44,0.26-0.87,0.57-1.3,0.78c-8.78,4.06-19.51-3.54-28.54-0.13
				c-8.48,3.16-10.86,13.8-16.56,20.76C218.34,333.01,209.91,336.47,202.68,340.93z"/>
			<path class="st5" d="M281.01,255.3c3.55,0.95,7.18,1.64,10.72,2.29c53.59,9.52,108.77,10.34,162.61,2.42
				c10.73-1.6,22.23-3.42,32.01,1.3c3.94,1.9,7.4,4.76,11.55,6.09c6.53,2.08,13.63-0.04,20.5-0.17c10.46-0.22,20.41,4.15,29.97,8.48
				c22.83,10.29,45.67,20.63,68.5,30.92c12.89,5.84,26.39,12.16,34.52,23.7c4.8,6.92,7.31,15.18,11.81,22.27
				c8.44,13.32,24.31,20.63,39.96,20.58c-20.93-55.87-69.72-114.13-152.23-139.52c-68.03-20.93-122.35-22.79-164.43-13.41
				c-13.66-2.94-27.03-6.92-40.35-11.46c-3.98-1.39-8.13-2.77-12.28-2.03c-7.39,1.3-11.8,8.7-15.95,14.92
				C308.6,235.66,295.75,247.3,281.01,255.3z"/>
		</g>
	</g>
</g>
</svg>
